<svg xmlns="http://www.w3.org/2000/svg"  viewBox="0 0 333334 259353" shape-rendering="geometricPrecision" text-rendering="geometricPrecision" image-rendering="optimizeQuality" fill-rule="evenodd" clip-rule="evenodd"><path d="M20403 0C9182 0 0 9182 0 20403v218546c0 11221 9182 20403 20403 20403h292528c11221 0 20403-9182 20403-20403V20403C333334 9182 324152 0 312931 0H20403zm146052 86304c22351 14139 42491 20850 59827 19270 3041 61169-19548 97300-59588 112346-38660-14098-61522-48691-59826-113292 20339 1066 40281-3317 59588-18324zm474 20931c15243 9635 28985 14214 40793 13148 2052 41701-13348 66343-40635 76607-158-78-354-118-511-196v-89283l354-276zm-474-13388c19784 12518 37634 18442 52954 17059 2687 54138-17335 86124-52756 99472-34196-12480-54454-43083-52954-100263 18007 948 35659-2961 52756-16228v-40zM19998 244368c-1565 0-2953-608-3995-1650-1045-1045-1653-2433-1653-3998V57124h-86 304805-86v181596c0 1565-608 2952-1653 3998-1042 1042-2430 1650-3995 1650H19998zM39820 22936c-5565 0-10077 4509-10077 10077 0 5565 4512 10074 10077 10074s10077-4509 10077-10074c0-5567-4512-10077-10077-10077zm68298 0c-5565 0-10077 4509-10077 10077 0 5565 4512 10074 10077 10074s10077-4509 10077-10074c0-5567-4512-10077-10077-10077zm-34151 0c-5565 0-10077 4509-10077 10077 0 5565 4512 10074 10077 10074 5568 0 10077-4509 10077-10074 0-5567-4509-10077-10077-10077z"/></svg>