<svg xmlns="http://www.w3.org/2000/svg" viewBox="0 0 2436 3333" shape-rendering="geometricPrecision" text-rendering="geometricPrecision" image-rendering="optimizeQuality" fill-rule="evenodd" clip-rule="evenodd"><path d="M994 809h11c86 0 157 71 157 157v1009h102v-423c0-80 66-146 146-146h11c86 0 157 71 157 157v422l5-2h110v-321c0-80 66-146 146-146h11c86 0 157 71 157 157v294h1l109-1v-208c0-80 66-146 146-146h11c86 0 157 71 157 157v440c0 5 0 11-1 16l5 4c10 283-10 689-243 892-231 188-462 237-702 199-327-52-498-229-653-511l-614-973c-32-75-28-126 4-159 138-90 364 101 614 371l9-2V953c0-80 66-146 146-146zm95-421c0 43-35 77-77 77-43 0-77-35-77-77V77c0-43 35-77 77-77 43 0 77 35 77 77v311zm-702 637c43 0 77 35 77 77 0 43-35 77-77 77H76c-43 0-77-35-77-77 0-43 35-77 77-77h311zm220-461c30 30 30 79 0 109s-79 30-109 0L279 453c-30-30-30-79 0-109s79-30 109 0l219 220zm1014 615c-43 0-77-35-77-77 0-43 35-77 77-77h311c43 0 77 35 77 77 0 43-35 77-77 77h-311zm-111-523c-30 30-79 30-109 0s-30-79 0-109l219-220c30-30 79-30 109 0s30 79 0 109l-219 220z"/></svg>